<?xml version="1.0"?>
<svg xmlns="http://www.w3.org/2000/svg" xmlns:xlink="http://www.w3.org/1999/xlink" xmlns:svgjs="http://svgjs.com/svgjs" version="1.1" width="512" height="512" x="0" y="0" viewBox="0 0 512 512" style="enable-background:new 0 0 512 512" xml:space="preserve" class=""><g><g xmlns="http://www.w3.org/2000/svg"><g><path d="m365.4 94.88a109.6 109.6 0 0 1 33.29 70.8c.21 2.74.31 5.52.31 8.32l1 210.35h-288l-1-210.35a109.6 109.6 0 0 1 31.22-76.76" fill="#cca400" data-original="#cca400" style=""/><g><g><g><path d="m312 314.42v37.58l-19.73 14.09-36.27 25.91-36.27-25.91-19.73-14.09v-37.58c18.6 13.53 39.37 21.58 56 21.58s37.4-8.05 56-21.58z" fill="#f1c489" data-original="#ffdaaa" style="" class=""/><path d="m359 192v40c0 33.56-21.85 63.41-48 82.42-18.6 13.53-39.37 21.58-56 21.58s-37.4-8.05-56-21.58a137.35 137.35 0 0 1 -11-8.88c-21-18.82-37-44.82-37-73.54v-40s136-24 144-56c0 0 24 56 64 56z" fill="#f1c489" data-original="#ffdaaa" style="" class=""/><path d="m359 104v88c-40 0-64-56-64-56-8 32-144 56-144 56v-88z" fill="#e1c13e" data-original="#ffda44" style="" class=""/></g><path d="m359 160v.55l-.06-.55z" fill="#d8d7da" data-original="#d8d7da" style="" class=""/><path d="m151 160h1.07l-1.07 8z" fill="#d8d7da" data-original="#d8d7da" style="" class=""/><path d="m290.76 30.31.27.1q2.535.93 5 2z" fill="#d8d7da" data-original="#d8d7da" style="" class=""/><path d="m448 453.67v42.33h-384v-42.33c0-36.34 15.5-68.12 50.64-77.36l35.46-10.22 104.9 89.91 104.9-89.91 8.44 2.43 27.02 7.79c35.14 9.24 52.64 41.02 52.64 77.36z" fill="#211d89" data-original="#2d2d30" style="" class=""/><path d="m359.9 366.09-104.9 89.91-104.9-89.91 16.9-14.87 41-7.22 16.73 22.09 30.27 17.91 36.27-24.91 19.73-15.09 32 7.22z" fill="#b9b8cd" data-original="#ab2300" style="" class=""/></g><path d="m415 80-62.27 18.68-.68.2-97.05 29.12-95.2-25.96-1.6-.44-79.2-21.6 176-64 35.96 14.39.07.02 3.68 1.48 1.32.52z" fill="#211d89" data-original="#2d2d30" style="" class=""/></g><path d="m290.76 30.31.27.1q2.535.93 5 2" fill="#d8d7da" data-original="#d8d7da" style="" class=""/></g><g><circle cx="208" cy="216" r="16" fill="#000000" data-original="#000000" style=""/><circle cx="304" cy="216" r="16" fill="#000000" data-original="#000000" style=""/><path d="m408 367.29v-193.29c0-3.04-.11-6.05-.33-8.92a117.443 117.443 0 0 0 -26.71-66.22l37.34-11.2a8 8 0 0 0 .67-15.09l-160-64a8 8 0 0 0 -5.7-.09l-176 64a8 8 0 0 0 .63 15.24l50.92 13.88a117.255 117.255 0 0 0 -24.82 72.4v193.29a88.077 88.077 0 0 0 -48 78.38v50.33a8 8 0 0 0 8 8h384a8 8 0 0 0 8-8v-50.33a88.065 88.065 0 0 0 -48-78.38zm-20.33-222.77a102.12 102.12 0 0 1 4.04 21.77c.19 2.48.29 5.07.29 7.71v187.03c-.36-.1-.72-.22-1.08-.32l-18.55-7.59a7.221 7.221 0 0 0 -.82-.29l-25.34-7.3c-.13-.04-.27-.07-.41-.11l-33.8-7.79v-13.52c30.17-20.23 56-53.94 56-92.11v-72c0-.24-.02-.49-.04-.73.02-.23.04-.48.04-.72v-30.55a111.86 111.86 0 0 0 -2.24-22.27 101.829 101.829 0 0 1 21.91 38.79zm-131.67 183.48c-18.19 0-42.4-11.16-61.66-28.42-29.88-26.78-34.34-53.83-34.34-67.58v-33.36c11.7-2.27 37.3-7.55 63.2-14.95 36.46-10.42 59.94-20.85 71.83-32.08 9.4 16.32 28.9 43.29 56.97 47.74v32.65c0 13.75-4.46 40.8-34.34 67.58-19.26 17.26-43.47 28.42-61.66 28.42zm40 5.38v6.87l-40 33.34-40-33.34v-6.87c13.85 6.81 27.82 10.62 40 10.62s26.15-3.81 40-10.62zm56.04-174.11c-.02.24-.04.49-.04.73v23.07c-29.63-6.88-48.45-49.76-48.65-50.22a8 8 0 0 0 -15.11 1.21c-.56 2.22-3.77 8.31-21.57 16.98-11.84 5.76-27.91 11.56-47.76 17.24-23.34 6.67-46.46 11.58-58.91 14.05v-54.33a96.822 96.822 0 0 1 1.6-17.45l92.3 25.17a7.981 7.981 0 0 0 4.4-.06l91.64-27.49a96.438 96.438 0 0 1 2.06 19.83v30.55c0 .24.02.49.04.72zm-245.63-80.36 149.45-54.35 135.9 54.36-135.86 40.76zm13.59 95.09a101.314 101.314 0 0 1 25.78-67.77l.33.09a112.212 112.212 0 0 0 -2.11 21.68v104c0 38.17 25.83 71.88 56 92.11v13.52l-33.8 7.79c-.26.07-.52.14-.78.23l-44.09 15c-.45.12-.89.26-1.33.38zm128 314h-128v-32a8 8 0 0 0 -16 0v32h-32v-42.33a72.03 72.03 0 0 1 53.67-69.62 5.011 5.011 0 0 0 .55-.17l23.87-8.12 97.91 83.92zm-80.31-126.23 2.5-.85 35.74-8.23 44.95 37.46a8 8 0 0 0 10.24 0l44.95-37.46 35.92 8.28 2.44.7-88.43 75.79zm272.31 126.23h-40v-32a8 8 0 0 0 -16 0v32h-120v-36.32l98.83-84.71 3.88 1.12 18.62 7.62a6.925 6.925 0 0 0 1 .34 72.03 72.03 0 0 1 53.67 69.62z" fill="#000000" data-original="#000000" style=""/><path d="m218.168 280.678c9.144 9.737 22.932 15.322 37.832 15.322s28.688-5.585 37.832-15.322a8 8 0 1 0 -11.664-10.953c-6.042 6.434-15.824 10.275-26.168 10.275s-20.126-3.841-26.168-10.275a8 8 0 1 0 -11.664 10.953z" fill="#000000" data-original="#000000" style=""/></g></g></g></svg>
