<?xml version="1.0"?>
<svg xmlns="http://www.w3.org/2000/svg" xmlns:xlink="http://www.w3.org/1999/xlink" xmlns:svgjs="http://svgjs.com/svgjs" version="1.1" width="512" height="512" x="0" y="0" viewBox="0 0 50 50" style="enable-background:new 0 0 512 512" xml:space="preserve"><g>
<g xmlns="http://www.w3.org/2000/svg">
	<path d="M37.607,27.692C42.43,26.689,50,21.177,50,16.576c0-4.387-4.875-5.357-8.857-5.571c0.104-1.549,0.178-3.119,0.178-4.727   c0.869,0,1.57-1.052,1.57-2.355c0-1.301-0.701-2.354-1.57-2.354H8.68c-0.868,0-1.569,1.053-1.569,2.354   c0,1.303,0.701,2.355,1.569,2.355c0,1.608,0.074,3.178,0.178,4.727C4.875,11.222,0,12.188,0,16.576   c0,4.602,7.569,10.114,12.393,11.116c2.526,6.346,6.157,10.736,10.282,11.954c-4.367,1.415-13.372,4.813-13.372,8.786h31.396   c0-3.973-9.008-7.371-13.373-8.786C31.45,38.428,35.081,34.037,37.607,27.692z M46.861,16.576c0,2.3-4.463,5.938-8,7.445   c0.904-3.014,1.584-6.334,1.996-9.883C43.637,14.274,46.861,14.768,46.861,16.576z M3.138,16.576c0-1.809,3.227-2.301,6.005-2.438   c0.411,3.545,1.092,6.869,1.996,9.88C7.602,22.513,3.138,18.875,3.138,16.576z M19.469,27.053c-0.358,0.412-0.87,0.611-1.38,0.586   c-0.362-0.021-0.722-0.157-1.018-0.414c-4.388-3.802-4.512-15.239-4.518-16.531c0-0.938,0.762-1.701,1.699-1.699   c1.003-0.029,1.699,0.759,1.701,1.697c0.005,4.284,0.911,11.859,3.344,13.963C20.005,25.27,20.086,26.342,19.469,27.053z" fill="#ffe82d" data-original="#000000" style=""/>
</g>
<g xmlns="http://www.w3.org/2000/svg">
</g>
<g xmlns="http://www.w3.org/2000/svg">
</g>
<g xmlns="http://www.w3.org/2000/svg">
</g>
<g xmlns="http://www.w3.org/2000/svg">
</g>
<g xmlns="http://www.w3.org/2000/svg">
</g>
<g xmlns="http://www.w3.org/2000/svg">
</g>
<g xmlns="http://www.w3.org/2000/svg">
</g>
<g xmlns="http://www.w3.org/2000/svg">
</g>
<g xmlns="http://www.w3.org/2000/svg">
</g>
<g xmlns="http://www.w3.org/2000/svg">
</g>
<g xmlns="http://www.w3.org/2000/svg">
</g>
<g xmlns="http://www.w3.org/2000/svg">
</g>
<g xmlns="http://www.w3.org/2000/svg">
</g>
<g xmlns="http://www.w3.org/2000/svg">
</g>
<g xmlns="http://www.w3.org/2000/svg">
</g>
</g></svg>
