<?xml version="1.0"?>
<svg xmlns="http://www.w3.org/2000/svg" xmlns:xlink="http://www.w3.org/1999/xlink" xmlns:svgjs="http://svgjs.com/svgjs" version="1.1" width="512" height="512" x="0" y="0" viewBox="0 0 512 512" style="enable-background:new 0 0 512 512" xml:space="preserve" class=""><g><g xmlns="http://www.w3.org/2000/svg"><g><g><g><g fill="#ffdaaa"><path d="m312 314.42v37.58l-19.73 14.09-36.27 25.91-36.27-25.91-19.73-14.09v-37.58c18.6 13.53 39.37 21.58 56 21.58s37.4-8.05 56-21.58z" fill="#e9b879" data-original="#ffdaaa" style="" class=""/><path d="m359 160v72c0 33.56-21.85 63.41-48 82.42-18.6 13.53-39.37 21.58-56 21.58s-37.4-8.05-56-21.58a137.35 137.35 0 0 1 -11-8.88c-21-18.82-37-44.82-37-73.54v-72z" fill="#e9b879" data-original="#ffdaaa" style="" class=""/></g><g fill="#d8d7da"><circle cx="207" cy="208" r="16" fill="#d8d7da" data-original="#d8d7da" style="" class=""/><circle cx="303" cy="208" r="16" fill="#d8d7da" data-original="#d8d7da" style="" class=""/></g></g><path d="m359 128v32h-208v-32c0-11.45 4.25-20.13 7.2-26.4l1.6.44 95.2 25.96 97.05-29.12.68-.2c2.78 9 6.27 20.18 6.27 29.32z" fill="#2c2c2c" data-original="#57565c" style="" class=""/><path d="m359 160v.55l-.06-.55z" fill="#d8d7da" data-original="#d8d7da" style="" class=""/><path d="m151 160h1.07l-1.07 8z" fill="#d8d7da" data-original="#d8d7da" style="" class=""/><path d="m290.76 30.31.27.1q2.535.93 5 2z" fill="#d8d7da" data-original="#d8d7da" style="" class=""/><path d="m359 176h12a20 20 0 0 1 20 20v24a20 20 0 0 1 -20 20h-12a0 0 0 0 1 0 0v-64a0 0 0 0 1 0 0z" fill="#e9b879" data-original="#ffdaaa" style="" class=""/><path d="m119 176h12a20 20 0 0 1 20 20v24a20 20 0 0 1 -20 20h-12a0 0 0 0 1 0 0v-64a0 0 0 0 1 0 0z" fill="#e9b879" transform="matrix(-1 0 0 -1 270 416)" data-original="#ffdaaa" style="" class=""/><path d="m455 453.67v42.33h-400v-42.33a79.992 79.992 0 0 1 59.64-77.36l35.46-10.22 104.9 89.91 104.9-89.91 8.44 2.43 27.02 7.79a79.992 79.992 0 0 1 59.64 77.36z" fill="#211d89" data-original="#2d2d30" style="" class=""/><path d="m359.9 366.09-104.9 89.91-104.9-89.91 16.9-4.87 32-9.22 19.73 14.09 36.27 25.91 36.27-25.91 19.73-14.09 32 9.22z" fill="#bfc1df" data-original="#ff9811" style="" class=""/></g><path d="m295 264c0 17.67-17.91 32-40 32s-40-14.33-40-32z" fill="#d8d7da" data-original="#d8d7da" style="" class=""/><path d="m415 80-62.27 18.68-.68.2-97.05 29.12-95.2-25.96-1.6-.44-79.2-21.6 176-64 35.96 14.39.07.02 3.68 1.48 1.32.52z" fill="#211d89" data-original="#2d2d30" style="" class=""/><circle cx="407" cy="152" fill="#d8d7da" r="16" data-original="#d8d7da" style="" class=""/></g><g><circle cx="208" cy="208" r="16" fill="#000000" data-original="#000000" style="" class=""/><circle cx="304" cy="208" r="16" fill="#000000" data-original="#000000" style="" class=""/><path d="m398.49 368.6-78.49-22.62v-27.63c22.44-17.33 41.17-42.15 46.48-70.35h5.52a28.031 28.031 0 0 0 28-28v-24a28.031 28.031 0 0 0 -28-28h-4v-8c0-.24-.02-.49-.04-.73.02-.23.04-.48.04-.72v-30.55a112.083 112.083 0 0 0 -2.68-24.44l34.68-10.41v36.23a24 24 0 1 0 16 0v-41.03l2.3-.69a8 8 0 0 0 .67-15.09l-160-64a8 8 0 0 0 -5.7-.09l-176 64a8 8 0 0 0 .63 15.24l68.21 18.6a112.212 112.212 0 0 0 -2.11 21.68v40h-4a28.031 28.031 0 0 0 -28 28v24a28.031 28.031 0 0 0 28 28h5.52c5.31 28.2 24.04 53.02 46.48 70.35v27.63l-78.49 22.62a88.03 88.03 0 0 0 -65.51 85.07v42.33a8 8 0 0 0 8 8h400a8 8 0 0 0 8-8v-42.33a88.03 88.03 0 0 0 -65.51-85.07zm-30.49-184.6h4a12.01 12.01 0 0 1 12 12v24a12.01 12.01 0 0 1 -12 12h-4zm40-40a8 8 0 1 1 -8 8 8.011 8.011 0 0 1 8-8zm-264 88h-4a12.01 12.01 0 0 1 -12-12v-24a12.01 12.01 0 0 1 12-12h4zm208-80h-192v-24a96.822 96.822 0 0 1 1.6-17.45l92.3 25.17a7.981 7.981 0 0 0 4.4-.06l91.64-27.49a96.366 96.366 0 0 1 2.06 19.83zm-245.59-73.09 149.45-54.35 135.9 54.36-135.86 40.76zm53.59 153.09v-64h192v64c0 13.75-4.46 40.8-34.34 67.58-19.26 17.26-43.47 28.42-61.66 28.42s-42.4-11.16-61.66-28.42c-29.88-26.78-34.34-53.83-34.34-67.58zm144 97.1v18.78l-48 34.29-48-34.29v-18.78c16.38 9.48 33.46 14.9 48 14.9s31.62-5.42 48-14.9zm-56 158.9h-128v-24a8 8 0 0 0 -16 0v24h-40v-34.33a72.03 72.03 0 0 1 53.67-69.62 1.055 1.055 0 0 1 .19-.05l31.31-9.03 98.83 84.71zm-80.43-118.33 30.93-8.91 52.85 37.75a7.99 7.99 0 0 0 9.3 0l52.85-37.75 30.93 8.91-88.43 75.79zm280.43 118.33h-48v-24a8 8 0 0 0 -16 0v24h-120v-28.32l98.83-84.71 31.31 9.03a1.8 1.8 0 0 1 .19.05 72.03 72.03 0 0 1 53.67 69.62z" fill="#000000" data-original="#000000" style="" class=""/><path d="m296 256h-80a8 8 0 0 0 -8 8c0 22.056 21.532 40 48 40s48-17.944 48-40a8 8 0 0 0 -8-8zm-40 32c-13.906 0-25.77-6.688-30.172-16h60.344c-4.402 9.312-16.266 16-30.172 16z" fill="#000000" data-original="#000000" style="" class=""/></g></g></g></svg>
