<?xml version="1.0"?>
<svg xmlns="http://www.w3.org/2000/svg" xmlns:xlink="http://www.w3.org/1999/xlink" xmlns:svgjs="http://svgjs.com/svgjs" version="1.1" width="512" height="512" x="0" y="0" viewBox="0 0 512.001 512.001" style="enable-background:new 0 0 512 512" xml:space="preserve" class=""><g><g xmlns="http://www.w3.org/2000/svg"><g clip-rule="evenodd" fill-rule="evenodd"><path d="m56 182.484 169.826-23.966c11.912-1.681 17.904-2.768 30.173-2.768s18.262 1.087 30.173 2.768l169.828 23.966v-16.482c0-10.998-9.293-17.488-20-20l-152.844-35.859c-10.721-2.515-16.114-4.142-27.156-4.142s-16.436 1.627-27.156 4.142l-152.844 35.859c-10.707 2.512-20 9.002-20 20z" fill="#ffffff" data-original="#ffffff" style=""/><path d="m225.827 158.518-169.827 23.966v48.399l169.826-8.188c11.912-.574 17.904-.946 30.173-.946s18.262.372 30.173.946l169.828 8.188v-48.399l-169.826-23.966c-11.912-1.681-17.904-2.768-30.173-2.768s-18.262 1.087-30.174 2.768z" fill="#59a7b5" data-original="#66e0f7" style="" class=""/><path d="m225.827 222.696-169.827 8.187v50.234c52.869 2.703 105.738 5.407 158.606 8.111 17.735.907 23.117 1.023 41.393 1.023s23.658-.116 41.393-1.023c52.869-2.704 105.737-5.407 158.606-8.111v-50.234l-169.826-8.188c-11.912-.574-17.904-.946-30.173-.946s-18.26.372-30.172.947z" fill="#44919f" data-original="#99ebfa" style="" class=""/><path d="m214.607 289.229c-52.869-2.704-105.737-5.407-158.606-8.111l-.001 48.399c52.87 7.913 105.739 15.827 158.607 23.74 17.735 2.654 23.117 2.994 41.393 2.994s23.658-.34 41.393-2.994c52.869-7.913 105.737-15.827 158.606-23.74v-48.399c-52.869 2.703-105.738 5.407-158.606 8.111-17.735.907-23.117 1.023-41.393 1.023s-23.658-.117-41.393-1.023z" fill="#59a7b5" data-original="#66e0f7" style="" class=""/><path d="m214.607 353.257c-52.869-7.913-105.738-15.827-158.607-23.74v16.482c0 10.998 9.325 17.344 20 20 47.582 11.84 95.164 23.681 142.746 35.521 15.962 3.972 20.806 4.48 37.254 4.48s21.292-.508 37.254-4.48c47.582-11.84 95.164-23.681 142.746-35.521 10.674-2.656 20-9.002 20-20v-16.482c-52.869 7.913-105.738 15.827-158.606 23.74-17.735 2.654-23.117 2.994-41.393 2.994s-23.659-.339-41.394-2.994z" fill="#44919f" data-original="#99ebfa" style="" class=""/></g><g><g><path d="m466 173.393v-7.391c0-14.331-10.62-25.725-27.716-29.736 0 0-155.199-36.416-156.29-36.676-8.729-2.084-15.036-3.589-25.994-3.589-10.957 0-17.265 1.505-25.995 3.589-1.091.26-156.289 36.676-156.289 36.676-17.096 4.011-27.716 15.405-27.716 29.736v7.391c-26.122 4.73-46 27.627-46 55.092v55.031c0 27.464 19.878 50.361 46 55.092v7.391c0 14.301 10.313 25.406 27.585 29.704l142.746 35.521c16.504 4.107 22.065 4.776 39.669 4.776 17.605 0 23.166-.669 39.669-4.776l142.746-35.521c17.273-4.297 27.585-15.402 27.585-29.704v-7.391c26.122-4.731 46.001-27.628 46.001-55.092v-55.031c0-27.465-19.878-50.362-46.001-55.092zm-20 47.089-163.466-7.963c-9.351-.463-15.528-.769-26.534-.769s-17.184.306-26.534.77l-42.945 2.093c-5.517.269-9.771 4.958-9.502 10.475.269 5.516 4.942 9.77 10.475 9.502l42.962-2.094c9.375-.465 15.034-.745 25.545-.745s16.169.28 25.545.745l164.454 8.01v31.012l-149.536 7.724c-16.992.877-22.287 1.01-40.464 1.01s-23.471-.132-40.464-1.01l-149.536-7.724v-31.012l31.601-1.539c5.517-.269 9.771-4.958 9.502-10.475-.27-5.516-4.959-9.763-10.475-9.502l-30.628 1.492v-29.31l165.116-23.307c9.187-1.319 14.731-2.115 24.885-2.115s15.697.796 24.883 2.115l165.116 23.307zm-380 71.063 148.505 7.671c17.441.9 22.87 1.036 41.495 1.036 18.626 0 24.055-.136 41.495-1.036l148.505-7.671v29.358l-150.087 22.464c-16.929 2.534-21.778 2.884-39.913 2.884s-22.984-.351-39.913-2.884l-150.087-22.464zm12.284-135.807s155.25-36.428 156.365-36.694c8.22-1.962 12.748-3.043 21.352-3.043s13.131 1.081 21.351 3.042c1.114.266 156.365 36.695 156.365 36.695 3.693.866 12.284 3.601 12.284 10.264v4.972l-162.276-22.907c-9.721-1.396-16.143-2.317-27.725-2.317s-18.005.922-27.727 2.318l-162.273 22.906v-4.971c0-6.664 8.591-9.399 12.284-10.265zm-58.284 127.778v-55.031c0-16.381 11.001-30.232 26-34.577v124.185c-14.999-4.346-26-18.197-26-34.577zm413.585 72.779-142.746 35.521c-14.929 3.715-18.836 4.184-34.839 4.184-16.002 0-19.909-.469-34.839-4.184l-142.746-35.521c-4.637-1.154-12.415-4.026-12.415-10.296v-4.874l147.126 22.022c17.835 2.669 23.845 3.104 42.874 3.104s25.039-.435 42.874-3.104l147.126-22.021v4.874c0 6.27-7.778 9.141-12.415 10.295zm58.416-72.779c0 16.38-11.001 30.231-26.001 34.577v-124.185c14.999 4.345 26.001 18.196 26.001 34.577z" fill="#000000" data-original="#000000" style=""/><path d="m142.064 216.79h-.007c-5.522 0-9.996 4.477-9.996 10s4.48 10 10.003 10 10-4.477 10-10-4.477-10-10-10z" fill="#000000" data-original="#000000" style=""/></g></g></g></g></svg>
