<?xml version="1.0"?>
<svg xmlns="http://www.w3.org/2000/svg" xmlns:xlink="http://www.w3.org/1999/xlink" xmlns:svgjs="http://svgjs.com/svgjs" version="1.1" width="512" height="512" x="0" y="0" viewBox="0 0 511.971 511.971" style="enable-background:new 0 0 512 512" xml:space="preserve" class=""><g><g xmlns="http://www.w3.org/2000/svg"><path d="m507.579 131.679-127.265-127.28-21.211 21.211-22.891 145.342 108.789 23.013c19.395-13.623 39.463-26.689 59.678-38.818 3.984-2.373 6.621-6.445 7.178-11.03.556-4.587-.996-9.172-4.278-12.438z" fill="#a3c6cc" data-original="#a3c6cc" style="" class=""/><path d="m144.225 342.576-77.227-24.551c-19.365 13.594-39.463 26.66-59.707 38.804-3.984 2.373-6.621 6.445-7.178 11.03s.996 9.17 4.277 12.437l127.266 127.28 21.211-21.211z" fill="#dff1f1" data-original="#cfe6e6" style="" class=""/><path d="m468.468 221.576-84.844-212.138c-2.109-5.288-7.031-8.936-12.715-9.39-5.654-.454-11.104 2.344-14.062 7.236-68.898 114.846-151.149 192.572-153.909 195.676-4.708 3.321-54.011 66.887-145.52 66.887-4.98 0-9.639 2.476-12.422 6.592s-3.34 9.36-1.494 13.975l84.844 212.124c2.233 5.599 7.661 9.434 13.916 9.434 5.244 0 10.137-2.739 12.861-7.28 69.502-115.854 150.723-192.117 153.873-195.661 4.223-2.978 54.69-66.886 145.555-66.886 4.98 0 9.639-2.476 12.422-6.592s3.341-9.362 1.495-13.977z" fill="#d4e3e3" data-original="#e6f2f2" style="" class=""/><path d="m454.552 242.143c4.98 0 9.639-2.476 12.422-6.592s3.34-9.36 1.494-13.975l-84.844-212.138c-2.109-5.288-7.031-8.936-12.715-9.39-5.654-.454-11.104 2.344-14.062 7.236-68.898 114.846-151.149 192.572-153.909 195.676l.002.013 106.057 106.057c4.223-2.979 54.69-66.887 145.555-66.887z" fill="#dff1f1" data-original="#cfe6e6" style="" class=""/><path d="m366.768 305.409-63.633-21.211c-5.391-1.816-11.309-.366-15.352 3.618-4.014 4.014-5.42 9.961-3.633 15.352l21.211 63.647c2.622 7.811 11.082 12.111 18.984 9.478 7.852-2.607 12.1-11.104 9.492-18.97l-11.748-35.186.022.007 35.164 11.711c7.852 2.637 16.348-1.597 18.984-9.478 2.609-7.864-1.639-16.36-9.491-18.968z" fill="#ff0000" data-original="#ff884d" style="" class=""/><path d="m357.276 333.856c7.852 2.637 16.348-1.597 18.984-9.478 2.607-7.866-1.641-16.362-9.492-18.97l-63.633-21.211c-5.391-1.816-11.309-.366-15.352 3.618l34.329 34.329z" fill="#ff0000" data-original="#ff4d4d" style="" class=""/><path d="m308.995 202.973c-29.238-29.238-76.816-29.238-106.055 0-29.343 29.282-29.297 76.818 0 106.055 29.293 29.293 76.871 29.183 106.055 0 29.299-29.239 29.341-76.746 0-106.055z" fill="#ffe14a" data-original="#ffea80" style="" class=""/><path d="m308.995 202.973c-29.238-29.238-76.816-29.238-106.055 0l106.055 106.055c29.299-29.239 29.341-76.746 0-106.055z" fill="#f1cf1e" data-original="#ffd24d" style="" class=""/><path d="m287.784 224.184c-17.498-17.527-46.113-17.549-63.633 0-17.565 17.565-17.615 46.016 0 63.633 17.52 17.549 46.113 17.549 63.633 0 17.565-17.568 17.615-46.019 0-63.633z" fill="#f1cf1e" data-original="#ffd24d" style="" class=""/><path d="m287.784 224.184c-17.498-17.527-46.113-17.549-63.633 0l63.633 63.633c17.565-17.568 17.615-46.019 0-63.633z" fill="#ffda1f" data-original="#ffaa33" style="" class=""/></g></g></svg>
